<?xml version="1.0" encoding="UTF-8"?>
<!DOCTYPE svg PUBLIC "-//W3C//DTD SVG 1.1//EN" "http://www.w3.org/Graphics/SVG/1.1/DTD/svg11.dtd">
<!-- Creator: CorelDRAW 2020 (64-Bit) -->
<svg xmlns="http://www.w3.org/2000/svg" xml:space="preserve" width="169.333mm" height="169.333mm" version="1.1" style="shape-rendering:geometricPrecision; text-rendering:geometricPrecision; image-rendering:optimizeQuality; fill-rule:evenodd; clip-rule:evenodd"
viewBox="0 0 16933.32 16933.32"
 xmlns:xlink="http://www.w3.org/1999/xlink"
 xmlns:xodm="http://www.corel.com/coreldraw/odm/2003">
 <defs>
   <clipPath id="id0">
    <path d="M13700.48 7154.33l1945.91 1720.15 -1720.15 1945.91 -797.22 -704.72c46.77,-18.98 66.27,-88.37 7.93,-127.89l-64.25 -49.66c-13.71,-13.7 -22.44,-10.19 -61.23,-48.98 -13.34,-13.35 -49.45,-28.44 -74.22,-55.74 -29.48,-32.48 -102.3,-96.13 -147.48,-89.23 -20.55,3.14 -36.85,14.68 -47.01,30.05l-762.43 -673.98 1720.15 -1945.91z"/>
   </clipPath>
   <clipPath id="id1">
    <path d="M15646.38 8874.49l0 -0.02 -1945.89 -1720.13 -0.02 0 -1720.14 1945.9 762.43 673.98c10.16,-15.37 26.46,-26.91 47.01,-30.05 45.18,-6.9 118,56.75 147.48,89.23 24.77,27.3 60.88,42.39 74.22,55.74 38.79,38.79 47.52,35.28 61.23,48.98l64.25 49.66c58.34,39.52 38.84,108.91 -7.93,127.89l797.22 704.72 1720.14 -1945.9z"/>
   </clipPath>
   <clipPath id="id2">
    <path d="M13700.48 7154.33l1945.91 1720.15 -1720.15 1945.91 -797.22 -704.72c46.77,-18.98 66.27,-88.37 7.93,-127.89l-64.25 -49.66c-13.71,-13.7 -22.44,-10.19 -61.23,-48.98 -13.34,-13.35 -49.45,-28.44 -74.22,-55.74 -29.48,-32.48 -102.3,-96.13 -147.48,-89.23 -20.55,3.14 -36.85,14.68 -47.01,30.05l-762.43 -673.98 1720.15 -1945.91z"/>
   </clipPath>
   <clipPath id="id3">
    <path d="M2353.73 2116.66l12129.48 0 0 12700 -12129.48 0 0 -12700zm7496.69 10345.58c86.89,100.34 101.63,53.85 265.84,218.06l392.58 331.58c60.76,99.7 122.37,85.37 274.51,223.39 37.53,34.07 342.66,242.14 431.08,255.65 282.74,43.18 469.95,-337.51 178.86,-534.7l-260.34 -201.21c-55.51,-55.52 -90.9,-41.28 -248.05,-198.43 -54.09,-54.09 -200.37,-115.23 -300.77,-225.88 -119.41,-131.6 -414.49,-389.48 -597.54,-361.53 -229.04,34.98 -327.98,327.48 -136.17,493.07z"/>
   </clipPath>
 </defs>
 <g id="Layer_x0020_1">
  <metadata id="CorelCorpID_0Corel-Layer"/>
  <g style="clip-path:url(#id0)">
  </g>
  <g style="clip-path:url(#id1)">
   <image x="11980.33" y="7154.34" width="3666.05" height="3666.05" xlink:href="1_Images\1_ImgID1.png"/>
  </g>
  <g style="clip-path:url(#id2)">
  </g>
  <g style="clip-path:url(#id3)">
   <image x="2353.73" y="2116.64" width="12129.5" height="12700.02" xlink:href="1_Images\1_ImgID2.png"/>
  </g>
 </g>
</svg>
