<?xml version="1.0" encoding="UTF-8"?>
<!DOCTYPE svg PUBLIC "-//W3C//DTD SVG 1.1//EN" "http://www.w3.org/Graphics/SVG/1.1/DTD/svg11.dtd">
<!-- Creator: CorelDRAW 2020 (64-Bit) -->
<svg xmlns="http://www.w3.org/2000/svg" xml:space="preserve" width="169.333mm" height="169.333mm" version="1.1" style="shape-rendering:geometricPrecision; text-rendering:geometricPrecision; image-rendering:optimizeQuality; fill-rule:evenodd; clip-rule:evenodd"
viewBox="0 0 16933.32 16933.32"
 xmlns:xlink="http://www.w3.org/1999/xlink"
 xmlns:xodm="http://www.corel.com/coreldraw/odm/2003">
 <defs>
   <clipPath id="id0">
    <path d="M11990.21 6968.07l1945.91 1720.15 -1720.15 1945.91 -797.22 -704.72c46.77,-18.98 66.27,-88.37 7.93,-127.89l-64.25 -49.66c-13.71,-13.7 -22.44,-10.19 -61.23,-48.98 -13.34,-13.35 -49.45,-28.44 -74.22,-55.74 -29.48,-32.48 -102.3,-96.13 -147.48,-89.23 -20.55,3.14 -36.85,14.68 -47.01,30.05l-762.43 -673.98 1720.15 -1945.91z"/>
   </clipPath>
   <clipPath id="id1">
    <path d="M13936.11 8688.23l0 -0.02 -1945.89 -1720.13 -0.02 0 -1720.14 1945.9 762.43 673.98c10.16,-15.37 26.46,-26.91 47.01,-30.05 45.18,-6.9 118,56.75 147.48,89.23 24.77,27.3 60.88,42.39 74.22,55.74 38.79,38.79 47.52,35.28 61.23,48.98l64.25 49.66c58.34,39.52 38.84,108.91 -7.93,127.89l797.22 704.72 1720.14 -1945.9z"/>
   </clipPath>
   <clipPath id="id2">
    <path d="M11990.21 6968.07l1945.91 1720.15 -1720.15 1945.91 -797.22 -704.72c46.77,-18.98 66.27,-88.37 7.93,-127.89l-64.25 -49.66c-13.71,-13.7 -22.44,-10.19 -61.23,-48.98 -13.34,-13.35 -49.45,-28.44 -74.22,-55.74 -29.48,-32.48 -102.3,-96.13 -147.48,-89.23 -20.55,3.14 -36.85,14.68 -47.01,30.05l-762.43 -673.98 1720.15 -1945.91z"/>
   </clipPath>
   <clipPath id="id3">
    <path d="M4423.49 4233.32l8086.34 0 0 8466.68 -8086.34 0 0 -8466.68zm4997.8 6897.06c57.93,66.9 67.76,35.9 177.23,145.37l261.72 221.06c40.51,66.47 81.58,56.91 183.01,148.93 25.02,22.71 228.44,161.42 287.38,170.43 188.5,28.79 313.31,-225 119.24,-356.47l-173.55 -134.14c-37.01,-37.01 -60.61,-27.52 -165.37,-132.29 -36.06,-36.05 -133.58,-76.81 -200.51,-150.58 -79.61,-87.74 -276.33,-259.65 -398.36,-241.02 -152.7,23.32 -218.66,218.32 -90.79,328.71z"/>
   </clipPath>
 </defs>
 <g id="Layer_x0020_1">
  <metadata id="CorelCorpID_0Corel-Layer"/>
  <g style="clip-path:url(#id0)">
  </g>
  <g style="clip-path:url(#id1)">
   <image x="10270.06" y="6968.08" width="3666.05" height="3666.05" xlink:href="31_Images\31_ImgID1.png"/>
  </g>
  <g style="clip-path:url(#id2)">
  </g>
  <g style="clip-path:url(#id3)">
   <image x="4423.49" y="4233.31" width="8086.34" height="8466.69" xlink:href="31_Images\31_ImgID2.png"/>
  </g>
 </g>
</svg>
